<svg width="133" height="133" viewBox="0 0 133 133" fill="none" xmlns="http://www.w3.org/2000/svg">
<circle cx="66.5" cy="66.5" r="66.5" fill="#0070C9"/>
<path d="M37.7654 103.445H29.5555V99.3396C29.5736 83.4774 42.4279 70.6231 58.2901 70.605H74.7099C90.572 70.6231 103.426 83.4774 103.444 99.3396V103.445H95.2346V99.3396C95.221 88.0097 86.0397 78.8285 74.7099 78.8149H58.2901C46.9603 78.8285 37.779 88.0097 37.7654 99.3396V103.445ZM66.5 66.5001C55.1645 66.5001 45.9753 57.3109 45.9753 45.9754C45.9753 34.6399 55.1645 25.4507 66.5 25.4507C77.8355 25.4507 87.0247 34.6399 87.0247 45.9754C87.0111 57.3052 77.8298 66.4865 66.5 66.5001ZM66.5 33.6606C59.6987 33.6606 54.1852 39.1741 54.1852 45.9754C54.1852 52.7767 59.6987 58.2902 66.5 58.2902C73.3013 58.2902 78.8148 52.7767 78.8148 45.9754C78.8148 39.1741 73.3013 33.6606 66.5 33.6606Z" fill="white"/>
</svg>
